<mxfile host="Electron" modified="2024-03-18T20:27:24.751Z" agent="Mozilla/5.0 (Windows NT 10.0; Win64; x64) AppleWebKit/537.36 (KHTML, like Gecko) draw.io/24.0.4 Chrome/120.0.6099.109 Electron/28.1.0 Safari/537.36" etag="i-_b3_d1_cBwXrypnXuZ" version="24.0.4" type="device" pages="2">
  <diagram name="Page-1" id="2QCpEh3pnC2tmW815pwn">
    <mxGraphModel dx="989" dy="582" grid="1" gridSize="10" guides="1" tooltips="1" connect="1" arrows="1" fold="1" page="1" pageScale="1" pageWidth="850" pageHeight="1100" math="0" shadow="0">
      <root>
        <mxCell id="0" />
        <mxCell id="1" parent="0" />
        <mxCell id="IyTdwum871nhNin2dA4g-15" value="" style="edgeStyle=orthogonalEdgeStyle;rounded=0;orthogonalLoop=1;jettySize=auto;html=1;" edge="1" parent="1" source="IyTdwum871nhNin2dA4g-1" target="IyTdwum871nhNin2dA4g-8">
          <mxGeometry relative="1" as="geometry" />
        </mxCell>
        <mxCell id="IyTdwum871nhNin2dA4g-1" value="CollapsibleWidget" style="swimlane;fontStyle=1;align=center;verticalAlign=top;childLayout=stackLayout;horizontal=1;startSize=26;horizontalStack=0;resizeParent=1;resizeParentMax=0;resizeLast=0;collapsible=1;marginBottom=0;whiteSpace=wrap;html=1;" vertex="1" parent="1">
          <mxGeometry x="314" y="190" width="222" height="170" as="geometry" />
        </mxCell>
        <mxCell id="IyTdwum871nhNin2dA4g-2" value="CollapseButton : ButtonWidget&lt;div&gt;CurrentButtonPosition : EPosition&lt;/div&gt;" style="text;strokeColor=none;fillColor=none;align=left;verticalAlign=top;spacingLeft=4;spacingRight=4;overflow=hidden;rotatable=0;points=[[0,0.5],[1,0.5]];portConstraint=eastwest;whiteSpace=wrap;html=1;" vertex="1" parent="IyTdwum871nhNin2dA4g-1">
          <mxGeometry y="26" width="222" height="34" as="geometry" />
        </mxCell>
        <mxCell id="IyTdwum871nhNin2dA4g-3" value="" style="line;strokeWidth=1;fillColor=none;align=left;verticalAlign=middle;spacingTop=-1;spacingLeft=3;spacingRight=3;rotatable=0;labelPosition=right;points=[];portConstraint=eastwest;strokeColor=inherit;" vertex="1" parent="IyTdwum871nhNin2dA4g-1">
          <mxGeometry y="60" width="222" height="8" as="geometry" />
        </mxCell>
        <mxCell id="IyTdwum871nhNin2dA4g-4" value="SetButtonPosition()&lt;div&gt;SetCanvasPosition()&lt;/div&gt;" style="text;strokeColor=none;fillColor=none;align=left;verticalAlign=top;spacingLeft=4;spacingRight=4;overflow=hidden;rotatable=0;points=[[0,0.5],[1,0.5]];portConstraint=eastwest;whiteSpace=wrap;html=1;" vertex="1" parent="IyTdwum871nhNin2dA4g-1">
          <mxGeometry y="68" width="222" height="42" as="geometry" />
        </mxCell>
        <mxCell id="IyTdwum871nhNin2dA4g-5" value="" style="line;strokeWidth=1;fillColor=none;align=left;verticalAlign=middle;spacingTop=-1;spacingLeft=3;spacingRight=3;rotatable=0;labelPosition=right;points=[];portConstraint=eastwest;strokeColor=inherit;" vertex="1" parent="IyTdwum871nhNin2dA4g-1">
          <mxGeometry y="110" width="222" height="8" as="geometry" />
        </mxCell>
        <mxCell id="IyTdwum871nhNin2dA4g-6" value="&lt;b&gt;Blueprint Implementation&lt;/b&gt;" style="text;strokeColor=none;fillColor=none;align=center;verticalAlign=top;spacingLeft=4;spacingRight=4;overflow=hidden;rotatable=0;points=[[0,0.5],[1,0.5]];portConstraint=eastwest;whiteSpace=wrap;html=1;" vertex="1" parent="IyTdwum871nhNin2dA4g-1">
          <mxGeometry y="118" width="222" height="26" as="geometry" />
        </mxCell>
        <mxCell id="IyTdwum871nhNin2dA4g-7" value="Size of widget itself" style="text;strokeColor=none;fillColor=none;align=left;verticalAlign=top;spacingLeft=4;spacingRight=4;overflow=hidden;rotatable=0;points=[[0,0.5],[1,0.5]];portConstraint=eastwest;whiteSpace=wrap;html=1;" vertex="1" parent="IyTdwum871nhNin2dA4g-1">
          <mxGeometry y="144" width="222" height="26" as="geometry" />
        </mxCell>
        <mxCell id="IyTdwum871nhNin2dA4g-8" value="CanvasPanel" style="swimlane;fontStyle=1;align=center;verticalAlign=top;childLayout=stackLayout;horizontal=1;startSize=26;horizontalStack=0;resizeParent=1;resizeParentMax=0;resizeLast=0;collapsible=1;marginBottom=0;whiteSpace=wrap;html=1;" vertex="1" parent="1">
          <mxGeometry x="345" y="30" width="160" height="34" as="geometry" />
        </mxCell>
        <mxCell id="IyTdwum871nhNin2dA4g-16" value="Inherits" style="text;html=1;align=center;verticalAlign=middle;whiteSpace=wrap;rounded=0;" vertex="1" parent="1">
          <mxGeometry x="425" y="120" width="60" height="30" as="geometry" />
        </mxCell>
        <mxCell id="IyTdwum871nhNin2dA4g-17" value="" style="endArrow=classic;html=1;rounded=0;entryX=1;entryY=0.5;entryDx=0;entryDy=0;exitX=0;exitY=0.5;exitDx=0;exitDy=0;exitPerimeter=0;" edge="1" parent="1" source="IyTdwum871nhNin2dA4g-18" target="IyTdwum871nhNin2dA4g-1">
          <mxGeometry width="50" height="50" relative="1" as="geometry">
            <mxPoint x="580" y="263" as="sourcePoint" />
            <mxPoint x="620" y="240" as="targetPoint" />
          </mxGeometry>
        </mxCell>
        <mxCell id="IyTdwum871nhNin2dA4g-18" value="Button position is set based on how widget is collapsed" style="shape=note;size=20;whiteSpace=wrap;html=1;strokeColor=#3333FF;" vertex="1" parent="1">
          <mxGeometry x="590" y="217" width="100" height="100" as="geometry" />
        </mxCell>
        <mxCell id="IyTdwum871nhNin2dA4g-19" value="" style="endArrow=classic;html=1;rounded=0;exitX=0;exitY=0.5;exitDx=0;exitDy=0;entryX=0.512;entryY=0.958;entryDx=0;entryDy=0;entryPerimeter=0;" edge="1" parent="1" source="IyTdwum871nhNin2dA4g-1" target="IyTdwum871nhNin2dA4g-25">
          <mxGeometry width="50" height="50" relative="1" as="geometry">
            <mxPoint x="250" y="220" as="sourcePoint" />
            <mxPoint x="190" y="210" as="targetPoint" />
            <Array as="points">
              <mxPoint x="190" y="270" />
            </Array>
          </mxGeometry>
        </mxCell>
        <mxCell id="IyTdwum871nhNin2dA4g-21" value="EPosition : enum int8" style="swimlane;fontStyle=0;childLayout=stackLayout;horizontal=1;startSize=26;fillColor=none;horizontalStack=0;resizeParent=1;resizeParentMax=0;resizeLast=0;collapsible=1;marginBottom=0;whiteSpace=wrap;html=1;" vertex="1" parent="1">
          <mxGeometry x="120" y="56" width="140" height="130" as="geometry" />
        </mxCell>
        <mxCell id="IyTdwum871nhNin2dA4g-22" value="Left" style="text;strokeColor=none;fillColor=none;align=left;verticalAlign=top;spacingLeft=4;spacingRight=4;overflow=hidden;rotatable=0;points=[[0,0.5],[1,0.5]];portConstraint=eastwest;whiteSpace=wrap;html=1;" vertex="1" parent="IyTdwum871nhNin2dA4g-21">
          <mxGeometry y="26" width="140" height="26" as="geometry" />
        </mxCell>
        <mxCell id="IyTdwum871nhNin2dA4g-23" value="Right" style="text;strokeColor=none;fillColor=none;align=left;verticalAlign=top;spacingLeft=4;spacingRight=4;overflow=hidden;rotatable=0;points=[[0,0.5],[1,0.5]];portConstraint=eastwest;whiteSpace=wrap;html=1;" vertex="1" parent="IyTdwum871nhNin2dA4g-21">
          <mxGeometry y="52" width="140" height="26" as="geometry" />
        </mxCell>
        <mxCell id="IyTdwum871nhNin2dA4g-24" value="Top" style="text;strokeColor=none;fillColor=none;align=left;verticalAlign=top;spacingLeft=4;spacingRight=4;overflow=hidden;rotatable=0;points=[[0,0.5],[1,0.5]];portConstraint=eastwest;whiteSpace=wrap;html=1;" vertex="1" parent="IyTdwum871nhNin2dA4g-21">
          <mxGeometry y="78" width="140" height="26" as="geometry" />
        </mxCell>
        <mxCell id="IyTdwum871nhNin2dA4g-25" value="Bottom" style="text;strokeColor=none;fillColor=none;align=left;verticalAlign=top;spacingLeft=4;spacingRight=4;overflow=hidden;rotatable=0;points=[[0,0.5],[1,0.5]];portConstraint=eastwest;whiteSpace=wrap;html=1;" vertex="1" parent="IyTdwum871nhNin2dA4g-21">
          <mxGeometry y="104" width="140" height="26" as="geometry" />
        </mxCell>
      </root>
    </mxGraphModel>
  </diagram>
  <diagram id="iniVigmAPBOqqEEUTdm1" name="Page-2">
    <mxGraphModel dx="1195" dy="703" grid="1" gridSize="10" guides="1" tooltips="1" connect="1" arrows="1" fold="1" page="1" pageScale="1" pageWidth="850" pageHeight="1100" math="0" shadow="0">
      <root>
        <mxCell id="0" />
        <mxCell id="1" parent="0" />
      </root>
    </mxGraphModel>
  </diagram>
</mxfile>
